<?xml version="1.0" encoding="UTF-8" standalone="no"?><!DOCTYPE svg PUBLIC "-//W3C//DTD SVG 1.1//EN" "http://www.w3.org/Graphics/SVG/1.1/DTD/svg11.dtd">
<svg width="100%" height="100%" viewBox="0 0 480 480" version="1.1" xmlns="http://www.w3.org/2000/svg" xmlns:xlink="http://www.w3.org/1999/xlink" xml:space="preserve" style="fill-rule:evenodd;clip-rule:evenodd;stroke-linecap:round;stroke-linejoin:round;stroke-miterlimit:1.5;"><g id="darth.-vader.-chest.-panel"><path id="square" d="M280,224.638l83.644,0.362l0.356,-65.5l-84,0l0,65.138Z" style="fill-opacity:0;stroke:#000;stroke-width:1px;"/><path id="square1" d="M280,143.138l83.644,-0.138l0.356,-65.5l-84,0l0,65.638Z" style="fill-opacity:0;stroke:#000;stroke-width:1px;"/><path id="rectangle" d="M125.5,236.5l117.5,0.5l0.5,-38l-118,0l0,37.5Z" style="fill-opacity:0;stroke:#000;stroke-width:1px;"/><path id="rectangle1" d="M125.5,166.5l117.5,0.5l0.5,-38l-118,0l0,37.5Z" style="fill-opacity:0;stroke:#000;stroke-width:1px;"/><path id="switch" d="M105,444l54.269,0l0.231,-150.5l-54.5,0l0,150.5Z" style="fill-opacity:0;stroke:#000;stroke-width:1px;"/><path id="switch1" d="M177,444l54.269,0l0.231,-150.5l-54.5,0l0,150.5Z" style="fill-opacity:0;stroke:#000;stroke-width:1px;"/><path id="switch2" d="M249.5,444l53.769,0l0.231,-150.5l-54.5,0l0.5,150.5Z" style="fill-opacity:0;stroke:#000;stroke-width:1px;"/><path id="switch3" d="M319,444l54.269,0l0.231,-150.5l-54.5,0l0,150.5Z" style="fill-opacity:0;stroke:#000;stroke-width:1px;"/><path id="rectangle2" d="M125.5,96l117.5,0.5l0.5,-38l-118,0l0,37.5Z" style="fill-opacity:0;stroke:#000;stroke-width:1px;"/><path id="slider" d="M58,430.978l22.403,-0.228l0.201,-117.414l-3.839,0.1l-0.02,-57.458l4.415,-0.073l-0.015,-19.289l-4.663,-0.203l-0.178,-27.492l8.509,0.09l-0.103,-18.687l-7.834,0.231l0.111,-110.129l3.505,-0.08l0.008,-42.346c-3.81,0.21 -7.624,0.315 -11.442,0.314c-3.784,-0.001 -7.572,-0.105 -11.365,-0.314l0.209,42.649l3.374,-0.092l-0.489,110.418l-7.678,-0.052l0.106,18.31l8.008,-0.104l0.028,27.519l-3.607,0.172l-0.366,19.088l3.874,0.174l-0.161,57.466l-2.854,-0.094l-0.137,117.524Z" style="fill-opacity:0;stroke:#000;stroke-width:1px;"/><path id="slider1" d="M396,430.978l22.403,-0.228l0.201,-117.414l-3.839,0.1l-0.02,-57.458l4.415,-0.073l-0.015,-19.289l-4.663,-0.203l-0.178,-27.492l8.509,0.09l-0.103,-18.687l-7.834,0.231l0.111,-110.129l3.505,-0.08l0.008,-42.346c-3.81,0.21 -7.624,0.315 -11.442,0.314c-3.784,-0.001 -7.572,-0.105 -11.365,-0.314l0.209,42.649l3.374,-0.092l-0.489,110.418l-7.678,-0.052l0.106,18.31l8.008,-0.104l0.028,27.519l-3.607,0.172l-0.366,19.088l3.874,0.174l-0.161,57.466l-2.854,-0.094l-0.137,117.524Z" style="fill-opacity:0;stroke:#000;stroke-width:1px;"/><path id="container" d="M0,480l480,0l0,-480l-480,0l0,480Z" style="fill-opacity:0;stroke:#000;stroke-width:1px;"/></g></svg>