<?xml version="1.0" standalone="no"?>
<!DOCTYPE svg PUBLIC "-//W3C//DTD SVG 20010904//EN"
 "http://www.w3.org/TR/2001/REC-SVG-20010904/DTD/svg10.dtd">
<svg class="icon-logo" version="1.0" xmlns="http://www.w3.org/2000/svg"
 width="300.000000pt" height="261.000000pt" viewBox="0 0 300.000000 261.000000"
 preserveAspectRatio="xMidYMid meet">
<metadata>
Created by potrace 1.13, written by Peter Selinger 2001-2015
</metadata>
<g transform="translate(0.000000,261.000000) scale(0.100000,-0.100000)"
fill="#000000" stroke="none">
<path d="M1447 2493 c-24 -43 -349 -606 -721 -1252 -372 -645 -675 -1175 -673
-1177 2 -2 655 -3 1450 -2 l1447 3 -723 1252 c-397 689 -725 1253 -729 1253
-3 0 -26 -35 -51 -77z m3 -532 l0 -308 -57 -7 c-127 -15 -284 -87 -388 -177
-36 -32 -45 -37 -34 -19 8 14 118 204 244 423 125 218 230 397 232 397 1 0 3
-139 3 -309z m328 -81 c113 -195 216 -375 230 -399 l26 -44 -66 51 c-109 86
-293 161 -395 162 l-23 0 0 313 c1 239 3 307 12 292 6 -11 103 -180 216 -375z
m-330 -982 l-3 -633 -35 3 c-63 7 -164 43 -234 84 -213 125 -336 374 -305 618
19 156 92 298 204 397 95 85 245 153 358 162 16 1 17 -33 15 -631z m204 613
c284 -73 478 -321 478 -611 0 -179 -58 -319 -184 -446 -105 -105 -214 -162
-363 -188 l-33 -5 0 634 c0 524 2 635 13 635 8 0 48 -9 89 -19z m-892 -458
c-41 -187 0 -408 105 -568 83 -127 231 -246 370 -298 l60 -22 -267 -3 c-148
-1 -387 -1 -533 0 l-265 3 266 463 c147 254 268 462 269 462 2 0 -1 -17 -5
-37z m1745 -433 c140 -243 255 -446 255 -451 0 -5 -218 -9 -532 -9 l-533 1 73
29 c238 97 401 283 463 529 18 71 21 104 17 210 -3 69 -8 135 -12 146 -7 17
-6 18 3 3 7 -9 126 -216 266 -458z"/>
</g>
</svg>
