<?xml version="1.0" standalone="no"?>
<!DOCTYPE svg PUBLIC "-//W3C//DTD SVG 20010904//EN"
 "http://www.w3.org/TR/2001/REC-SVG-20010904/DTD/svg10.dtd">
<svg version="1.0" xmlns="http://www.w3.org/2000/svg"
 width="236.000000pt" height="236.000000pt" viewBox="0 0 236.000000 236.000000"
 preserveAspectRatio="xMidYMid meet">
<metadata>
Created by potrace 1.13, written by Peter Selinger 2001-2015
</metadata>
<g transform="translate(0.000000,236.000000) scale(0.100000,-0.100000)"
fill="#000000" stroke="none">
<path d="M810 1943 c0 -3 25 -53 56 -110 l55 -103 -33 -15 c-19 -7 -46 -17
-61 -20 -15 -4 -27 -12 -27 -17 0 -20 288 -344 297 -334 3 3 -18 58 -46 124
-28 65 -51 121 -51 125 0 4 20 12 45 18 25 6 45 14 44 18 0 3 -30 71 -67 150
-55 119 -71 146 -92 151 -43 11 -120 20 -120 13z"/>
<path d="M438 1261 c-154 -50 -264 -168 -298 -323 -7 -32 -18 -58 -24 -59 -98
-6 -106 -10 -106 -49 0 -35 8 -41 72 -49 l50 -6 18 -57 c49 -159 180 -271 348
-299 234 -39 455 123 494 363 6 40 16 79 22 87 37 49 179 76 257 49 62 -21 89
-48 89 -88 0 -57 28 -150 63 -209 87 -146 278 -233 444 -202 169 31 326 176
350 324 5 36 6 37 50 37 60 0 83 14 83 50 0 35 -23 50 -78 50 l-39 0 -12 55
c-43 190 -202 329 -390 342 -212 15 -384 -102 -455 -311 -6 -17 -8 -17 -24 -3
-69 62 -270 60 -337 -3 l-23 -21 -16 47 c-33 99 -120 200 -211 247 -97 49
-226 60 -327 28z m236 -81 c88 -28 171 -103 212 -192 39 -87 40 -196 2 -280
-103 -224 -379 -283 -560 -120 -131 118 -154 302 -58 451 87 135 245 190 404
141z m1231 1 c156 -55 258 -208 241 -364 -30 -290 -370 -424 -585 -231 -97 88
-138 220 -107 344 51 199 263 317 451 251z"/>
<path d="M295 986 c-36 -55 -46 -168 -21 -239 38 -106 161 -208 183 -151 4 11
-11 30 -47 62 -29 25 -61 64 -71 86 -23 51 -24 142 -3 196 13 32 14 43 4 55
-17 21 -27 19 -45 -9z"/>
<path d="M1526 988 c-42 -65 -44 -176 -5 -267 24 -57 107 -141 139 -141 41 0
35 30 -15 73 -87 74 -114 175 -78 287 14 44 15 53 2 61 -21 13 -27 11 -43 -13z"/>
</g>
</svg>
