<?xml version="1.0" encoding="UTF-8"?>
<!DOCTYPE svg PUBLIC "-//W3C//DTD SVG 1.1//EN" "http://www.w3.org/Graphics/SVG/1.1/DTD/svg11.dtd">
<!-- Creator: CorelDRAW X6 -->
<svg class="icon-logo" xmlns="http://www.w3.org/2000/svg" xml:space="preserve" width="93.765mm" height="86.6165mm" version="1.1" style="shape-rendering:geometricPrecision; text-rendering:geometricPrecision; image-rendering:optimizeQuality; fill-rule:evenodd; clip-rule:evenodd"
viewBox="0 0 1475 1362"
 xmlns:xlink="http://www.w3.org/1999/xlink">
 <defs>
  <style type="text/css">
   <![CDATA[
    .fil0 {fill:black}
   ]]>
  </style>
 </defs>
 <g id="Layer_x0020_1">
  <metadata id="CorelCorpID_0Corel-Layer"/>
  <path class="fil0" d="M1189 183c35,80 61,215 59,307 -2,91 -8,117 2,135 9,19 90,205 138,322 48,118 127,347 62,241 -66,-106 -196,-355 -254,-464 -59,-110 -86,-137 -153,-145 -68,-7 -104,-23 -48,-24 55,-1 132,-1 92,-15 -40,-15 -57,-75 -5,-61 52,15 136,60 110,34 -26,-26 -35,-53 -15,-68 21,-14 27,-23 19,-57 -9,-35 -20,-99 -22,-125 -1,-26 -17,-23 -19,49 -2,73 -5,188 -18,105 -13,-82 -33,-139 -56,-192 -23,-53 -27,-88 -6,-106 22,-18 27,-50 -21,-79 -48,-29 -77,-49 -30,-36 83,24 133,106 165,179zm-452 627c48,0 92,29 106,91 14,62 8,67 26,97 17,30 129,235 148,266 4,7 10,15 15,23 20,2 35,18 35,37 0,21 -17,38 -38,38 -16,0 -29,-10 -35,-23l-257 0 -257 0c-5,13 -19,23 -34,23 -21,0 -38,-17 -38,-38 0,-19 15,-35 34,-37 6,-8 12,-16 16,-23 18,-31 130,-236 148,-266 18,-30 12,-35 26,-97 13,-62 58,-91 105,-91zm0 505l25 0 0 -138 0 0c0,0 14,2 40,17l0 121 30 0 0 -101c9,6 19,14 29,23l12 9 0 69 30 0 0 -43c21,17 34,28 40,33l0 10 34 0c6,0 11,0 16,-1 2,-9 9,-18 18,-22 -3,-8 -8,-18 -16,-30 -25,-38 -139,-218 -154,-237 -14,-19 -19,-33 -21,-61 -3,-27 -20,-84 -81,-84l-2 0 -1 0c-61,0 -79,57 -81,84 -3,28 -7,42 -22,61 -14,19 -129,199 -154,237 -7,12 -13,22 -15,30 9,4 15,13 18,22 4,1 10,1 16,1l33 0 0 -10c7,-5 20,-16 40,-33l0 43 31 0 0 -69 11 -9c11,-9 20,-17 29,-23l0 101 31 0 0 -121c25,-15 39,-17 40,-17l0 0 0 138 24 0zm-451 -1132c-35,80 -61,215 -59,307 2,91 8,117 -2,135 -10,19 -90,205 -139,322 -48,118 -127,347 -61,241 65,-106 195,-355 254,-464 59,-110 86,-137 153,-145 67,-7 104,-23 48,-24 -56,-1 -133,-1 -92,-15 40,-15 56,-75 4,-61 -52,15 -135,60 -109,34 26,-26 34,-53 14,-68 -20,-14 -27,-23 -18,-57 9,-35 19,-99 21,-125 2,-26 17,-23 19,49 2,73 5,188 19,105 13,-82 32,-139 55,-192 23,-53 27,-88 6,-106 -21,-18 -27,-50 21,-79 48,-29 77,-49 30,-36 -83,24 -132,106 -164,179z"/>
 </g>
</svg>
